<svg id="Capa_1" enable-background="new 0 0 512 512" height="512" viewBox="0 0 512 512" width="512" xmlns="http://www.w3.org/2000/svg"><g><path d="m130.833 512h-120.531c-5.69 0-10.302-4.612-10.302-10.302v-120.531c0-5.69 4.612-10.302 10.302-10.302h120.531c5.69 0 10.302 4.612 10.302 10.302v120.531c0 5.69-4.612 10.302-10.302 10.302z" fill="#ffc269"/><path d="m130.833 370.865h-30.905c5.69 0 10.302 4.612 10.302 10.302v120.531c0 5.69-4.612 10.302-10.302 10.302h30.905c5.69 0 10.302-4.612 10.302-10.302v-120.531c0-5.69-4.612-10.302-10.302-10.302z" fill="#ffa95f"/><path d="m316.266 512h-120.532c-5.69 0-10.302-4.612-10.302-10.302v-120.531c0-5.69 4.612-10.302 10.302-10.302h120.531c5.69 0 10.302 4.612 10.302 10.302v120.531c0 5.69-4.612 10.302-10.301 10.302z" fill="#b3e59f"/><path d="m316.266 370.865h-30.906c5.69 0 10.302 4.612 10.302 10.302v120.531c0 5.69-4.612 10.302-10.302 10.302h30.905c5.69 0 10.302-4.612 10.302-10.302v-120.531c0-5.69-4.612-10.302-10.301-10.302z" fill="#95d6a4"/><path d="m501.698 512h-120.531c-5.69 0-10.302-4.612-10.302-10.302v-120.531c0-5.69 4.612-10.302 10.302-10.302h120.531c5.69 0 10.302 4.612 10.302 10.302v120.531c0 5.69-4.612 10.302-10.302 10.302z" fill="#ff8086"/><path d="m501.698 370.865h-30.905c5.69 0 10.302 4.612 10.302 10.302v120.531c0 5.69-4.612 10.302-10.302 10.302h30.905c5.69 0 10.302-4.612 10.302-10.302v-120.531c0-5.69-4.612-10.302-10.302-10.302z" fill="#e5646e"/><g><g><path d="m79.073 488.956c-4.267 0-7.726-3.459-7.726-7.726v-71.867h-9.286c-4.267 0-7.726-3.459-7.726-7.726s3.459-7.726 7.726-7.726h17.012c4.267 0 7.726 3.459 7.726 7.726v79.594c.001 4.266-3.458 7.725-7.726 7.725z" fill="#fff"/></g></g><g><g><path d="m252.357 489.751c-15.333 0-16.462-.377-17.494-.72-2.577-.859-4.499-2.805-5.279-5.337-1.342-4.364.526-6.809 5.516-13.344 4.048-5.3 11.582-15.165 24.204-33.199 3.744-5.35 6.159-10.14 7.181-14.242l.271-2.119c-.229-6.771-5.808-12.206-12.632-12.206-6.028 0-11.244 4.282-12.403 10.181-.822 4.187-4.882 6.913-9.07 6.093-4.187-.822-6.915-4.883-6.093-9.07 2.578-13.128 14.172-22.656 27.566-22.656 15.49 0 28.093 12.603 28.093 28.093 0 .327-.021.654-.062.979l-.393 3.079c-.033.258-.078.513-.137.766-1.418 6.117-4.668 12.833-9.658 19.965-9.351 13.359-15.958 22.313-20.445 28.27 7.533-.023 17.174-.068 26.247-.182.033-.001.066-.001.099-.001 4.222 0 7.671 3.395 7.724 7.63.053 4.267-3.362 7.769-7.629 7.822-11.318.14-19.565.198-25.606.198z" fill="#fff"/></g></g><path d="m460.752 441.433c5.398-5.123 8.774-12.355 8.774-20.366 0-15.491-12.603-28.094-28.093-28.094-13.394 0-24.987 9.528-27.566 22.657-.822 4.187 1.905 8.247 6.092 9.07 4.186.823 8.248-1.905 9.071-6.093 1.159-5.899 6.375-10.182 12.403-10.182 6.97 0 12.64 5.671 12.64 12.641s-5.671 12.64-12.64 12.64c-4.267 0-7.726 3.459-7.726 7.726s3.459 7.726 7.726 7.726c6.97 0 12.64 5.67 12.64 12.64s-5.671 12.641-12.64 12.641c-6.272 0-11.653-4.672-12.518-10.869-.081-.581-.122-1.177-.122-1.772 0-4.268-3.459-7.726-7.726-7.726s-7.726 3.459-7.726 7.726c0 1.308.091 2.624.271 3.908 1.924 13.788 13.885 24.185 27.822 24.185 15.49 0 28.093-12.603 28.093-28.094-.001-8.009-3.377-15.242-8.775-20.364z" fill="#fff"/><g><path d="m237.972 104.048h36.056v85.505h-36.056z" fill="#fff0af"/><g><g><path d="m303.71 95.422h-7.718c-4.267 0-7.726-3.459-7.726-7.726v-72.243c0-4.268 3.459-7.726 7.726-7.726h53.94c7.101 0 12.877 5.777 12.877 12.877v15.718c0 32.587-26.512 59.1-59.099 59.1zm.008-72.243v56.79c24.063-.005 43.638-19.582 43.638-43.647v-13.143z" fill="#fff0af"/></g><g><path d="m216.008 95.422h-7.718c-32.588 0-59.099-26.512-59.099-59.1v-15.718c0-7.101 5.777-12.877 12.877-12.877h53.94c4.267 0 7.726 3.459 7.726 7.726v72.242c0 4.268-3.459 7.727-7.726 7.727zm-51.364-72.243v13.143c0 24.064 19.575 43.642 43.638 43.647v-56.79z" fill="#fff0af"/></g></g><path d="m293.602 228.7h-75.203c-5.69 0-10.302-4.612-10.302-10.302v-33.996c0-5.69 4.612-10.302 10.302-10.302h75.203c5.69 0 10.302 4.612 10.302 10.302v33.996c-.001 5.69-4.613 10.302-10.302 10.302z" fill="#655e68"/><path d="m293.602 174.101h-30.905c5.69 0 10.302 4.612 10.302 10.302v33.996c0 5.69-4.612 10.302-10.302 10.302h30.905c5.69 0 10.302-4.612 10.302-10.302v-33.996c-.001-5.69-4.613-10.302-10.302-10.302z" fill="#544f57"/><path d="m256 128.773c-29.301 0-53.054-23.753-53.054-53.054v-70.568c0-2.845 2.306-5.151 5.151-5.151h95.807c2.845 0 5.151 2.306 5.151 5.151v70.567c-.001 29.301-23.754 53.055-53.055 53.055z" fill="#ffe07d"/><path d="m303.903 0h-30.905c2.845 0 5.151 2.306 5.151 5.151v70.567c0 23.925-15.839 44.144-37.602 50.761 4.89 1.487 10.077 2.293 15.453 2.293 29.301 0 53.054-23.753 53.054-53.054v-70.567c0-2.845-2.306-5.151-5.151-5.151z" fill="#ffd064"/></g><g><g><path d="m256 347.686c-4.267 0-7.726-3.459-7.726-7.726v-80.354c0-4.268 3.459-7.726 7.726-7.726s7.726 3.459 7.726 7.726v80.354c0 4.267-3.459 7.726-7.726 7.726z" fill="#e6ecf8"/></g><g><g><path d="m441.525 347.686c-1.821 0-3.649-.64-5.12-1.943l-108.169-95.807c-3.195-2.829-3.49-7.712-.661-10.906s7.712-3.491 10.906-.661l108.169 95.807c3.195 2.829 3.49 7.712.661 10.906-1.526 1.724-3.651 2.604-5.786 2.604z" fill="#e6ecf8"/></g><g><path d="m70.475 347.686c-2.135 0-4.26-.879-5.787-2.604-2.829-3.194-2.534-8.077.661-10.906l108.169-95.807c3.194-2.831 8.078-2.534 10.906.661 2.829 3.194 2.534 8.077-.661 10.906l-108.168 95.807c-1.471 1.303-3.299 1.943-5.12 1.943z" fill="#e6ecf8"/></g></g></g></g></svg>