<svg id="Capa_1" enable-background="new 0 0 497 497" height="512" viewBox="0 0 497 497" width="512" xmlns="http://www.w3.org/2000/svg"><g><path d="m399.646 186.233v-53.7c0-18.299-14.834-33.133-33.133-33.133h-9.695v86.833z" fill="#f8aa8b"/><path d="m366.513 248.5h-157.383c-4.575 0-8.283-3.709-8.283-8.283v-231.934c0-4.575 3.709-8.283 8.283-8.283h149.1c4.575 0 8.283 3.709 8.283 8.283z" fill="#ff4b68"/><path d="m366.513 8.283c0-4.575-3.708-8.283-8.283-8.283h-23c4.575 0 8.283 3.708 8.283 8.283v240.217h23z" fill="#f73152"/><g><path d="m333.38 40.633h-99.4c-4.143 0-7.5-3.358-7.5-7.5s3.357-7.5 7.5-7.5h99.4c4.143 0 7.5 3.358 7.5 7.5s-3.357 7.5-7.5 7.5z" fill="#f73152"/></g><path d="m399.646 182.233h-98.966c-9.286 0-17.172 7.599-16.998 16.883.169 9.003 7.52 16.25 16.564 16.25h10.74c.551 0 .998.447.998.998 0 .429-.279.8-.684.94-7.951 2.753-13.12 10.508-10.255 19.854 1.536 5.01 5.457 8.763 10.256 10.411.404.139.683.507.683.935v.001c0 .425-.275.791-.676.932-6.533 2.301-11.191 8.58-11.06 15.93.159 8.954 8.085 16.265 17.04 16.265h.129c.497 0 .899.403.899.899 0 .344-.2.649-.509.801-5.493 2.697-9.279 8.335-9.279 14.867 0 6.128 3.336 11.466 8.283 14.332v18.801c0 11.218 5.579 21.127 14.11 27.12 1.565 1.1 2.457 2.927 2.457 4.84v127.708c0 3.314 2.686 6 6 6h54.267c3.314 0 6-2.686 6-6v-120.999c0-2.951 2.146-5.471 5.063-5.918 15.896-2.438 28.07-16.172 28.07-32.749v-115.967c.001-18.299-14.833-33.134-33.132-33.134z" fill="#f8c09c"/><path d="m399.646 182.233h-23c18.299 0 33.133 14.834 33.133 33.133v115.967c0 16.577-12.174 30.311-28.07 32.749-2.917.447-5.063 2.967-5.063 5.918v121c0 3.314-2.686 6-6 6h23c3.314 0 6-2.686 6-6v-120.999c0-2.951 2.146-5.471 5.063-5.918 15.896-2.438 28.07-16.172 28.07-32.749v-115.967c0-18.299-14.834-33.134-33.133-33.134z" fill="#f8aa8b"/><g><path d="m200.846 355.4c-4.143 0-7.5-3.358-7.5-7.5v-49.7c0-4.142 3.357-7.5 7.5-7.5s7.5 3.358 7.5 7.5v49.7c0 4.143-3.358 7.5-7.5 7.5z" fill="#8bdeff"/></g><g><path d="m151.153 368.719c-2.592 0-5.112-1.345-6.502-3.751l-24.851-43.041c-2.071-3.587-.842-8.174 2.745-10.245 3.586-2.071 8.174-.842 10.245 2.745l24.851 43.041c2.071 3.587.842 8.174-2.745 10.245-1.18.682-2.47 1.006-3.743 1.006z" fill="#8bdeff"/></g><g><path d="m114.757 405.102c-1.272 0-2.562-.324-3.743-1.006l-43.042-24.85c-3.587-2.071-4.816-6.658-2.745-10.245 2.07-3.587 6.655-4.817 10.245-2.745l43.042 24.85c3.587 2.071 4.816 6.658 2.745 10.245-1.389 2.405-3.91 3.751-6.502 3.751z" fill="#8bdeff"/></g><ellipse cx="200.846" cy="439.017" fill="#ff4b68" rx="57.983" ry="57.983" transform="matrix(.987 -.16 .16 .987 -67.729 37.841)"/><path d="m200.846 381.033c-3.938 0-7.783.397-11.5 1.145 26.514 5.336 46.483 28.753 46.483 56.838 0 28.086-19.97 51.503-46.483 56.839 3.717.748 7.562 1.145 11.5 1.145 32.023 0 57.983-25.96 57.983-57.983.001-32.024-25.959-57.984-57.983-57.984z" fill="#f73152"/><path d="m353.363 440.583h26v66.567h-26z" fill="#f8aa8b" transform="matrix(0 1 -1 0 840.23 107.504)"/><path d="m316.813 455.583c0 4.575 3.709 8.283 8.283 8.283h82.833c4.575 0 8.283-3.709 8.283-8.283v-49.7c0-4.575-3.709-8.283-8.283-8.283h-82.833c-4.575 0-8.283 3.709-8.283 8.283z" fill="#394d5c"/><g><path d="m383.079 438.233h-33.133c-4.143 0-7.5-3.358-7.5-7.5s3.357-7.5 7.5-7.5h33.133c4.143 0 7.5 3.358 7.5 7.5s-3.357 7.5-7.5 7.5z" fill="#fafafa"/></g><path d="m407.93 397.6h-23c4.575 0 8.283 3.709 8.283 8.283v49.7c0 4.575-3.709 8.283-8.283 8.283h23c4.575 0 8.283-3.709 8.283-8.283v-49.7c0-4.574-3.709-8.283-8.283-8.283z" fill="#2c4252"/><g fill="#f8aa8b"><path d="m383.08 241h-80.228c1.982 3.073 4.979 5.378 8.449 6.57.404.139.683.507.683.935v.001c0 .425-.275.791-.676.932-3.454 1.216-6.373 3.551-8.348 6.561h80.12c4.143 0 7.5-3.358 7.5-7.5s-3.357-7.499-7.5-7.499z"/><path d="m383.08 207.867h-96.684c2.96 4.512 8.051 7.5 13.85 7.5h10.74c.551 0 .998.447.998.998 0 .429-.279.8-.684.94-3.208 1.111-5.949 3.046-7.907 5.562h79.686c4.143 0 7.5-3.358 7.5-7.5s-3.356-7.5-7.499-7.5z"/><path d="m317.809 283.333c-2.675 1.313-4.94 3.328-6.565 5.8h71.837c4.143 0 7.5-3.358 7.5-7.5s-3.357-7.5-7.5-7.5h-79.939c3.122 4.5 8.418 7.5 14.147 7.5h.129c.497 0 .899.403.899.899.001.344-.2.65-.508.801z"/><path d="m383.08 322.267c4.143 0 7.5-3.358 7.5-7.5s-3.357-7.5-7.5-7.5h-71.834c1.42 2.157 3.325 3.967 5.567 5.266v9.734z"/></g><path d="m211.453 439.017 12.269-12.269c2.929-2.929 2.929-7.678 0-10.606-2.929-2.929-7.678-2.929-10.606 0l-12.269 12.269-12.269-12.269c-2.929-2.929-7.678-2.929-10.606 0-2.929 2.929-2.929 7.678 0 10.606l12.269 12.269-12.269 12.269c-2.929 2.929-2.929 7.678 0 10.606 1.464 1.464 3.384 2.197 5.303 2.197 1.92 0 3.839-.732 5.303-2.197l12.269-12.269 12.269 12.269c1.464 1.464 3.384 2.197 5.303 2.197s3.839-.732 5.303-2.197c2.929-2.929 2.929-7.678 0-10.606z" fill="#fafafa"/></g></svg>