<svg id="Capa_1" enable-background="new 0 0 512 512" height="512" viewBox="0 0 512 512" width="512" xmlns="http://www.w3.org/2000/svg"><g><path d="m341 190h-5.323c-8.284 0-15-6.716-15-15s6.716-15 15-15h5.323c30.327 0 55-24.673 55-55v-30c0-8.271-6.728-15-15-15h-40c-8.284 0-15-6.716-15-15s6.716-15 15-15h40c24.814 0 45 20.187 45 45v30c0 46.869-38.131 85-85 85z" fill="#ff8659"/><path d="m176.323 190h-5.323c-46.869 0-85-38.131-85-85v-30c0-24.813 20.187-45 45-45h40c8.284 0 15 6.716 15 15s-6.716 15-15 15h-40c-8.271 0-15 6.729-15 15v30c0 30.327 24.673 55 55 55h5.323c8.284 0 15 6.716 15 15s-6.716 15-15 15z" fill="#ffb454"/><path d="m341 0h-170c-8.284 0-15 6.716-15 15v130.949c0 29.282 12.902 56.828 35.397 75.574 15.636 13.03 24.603 32.175 24.603 52.528v40.949h80v-40.949c0-20.353 8.968-39.498 24.603-52.527 22.496-18.747 35.397-46.293 35.397-75.575v-130.949c0-8.284-6.716-15-15-15z" fill="#ffe196"/><path d="m341 0h-85v315h40v-40.949c0-20.353 8.968-39.498 24.603-52.527 22.496-18.747 35.397-46.293 35.397-75.575v-130.949c0-8.284-6.716-15-15-15z" fill="#ffb454"/><path d="m256 300c-8.284 0-15 6.716-15 15v62h30v-62c0-8.284-6.716-15-15-15z" fill="#524798"/><path d="m271 315c0-8.284-6.716-15-15-15v77h15z" fill="#38336b"/><g><path d="m258.824 195c-8.284 0-15-6.716-15-15v-105h-10.648c-8.284 0-15-6.716-15-15s6.716-15 15-15h25.648c8.284 0 15 6.716 15 15v120c0 8.284-6.716 15-15 15z" fill="#ffb454"/></g><path d="m321 330h-130c-8.284 0-15-6.716-15-15s6.716-15 15-15h130c8.284 0 15 6.716 15 15s-6.716 15-15 15z" fill="#ffb454"/><path d="m321 300h-65v30h65c8.284 0 15-6.716 15-15s-6.716-15-15-15z" fill="#ff8659"/><g><path d="m258.824 45h-2.824v149.726c.915.174 1.858.274 2.824.274 8.284 0 15-6.716 15-15v-120c0-8.284-6.716-15-15-15z" fill="#ff8659"/></g><path d="m366 362h-220c-8.284 0-15 6.716-15 15v60h30v-45h190v45h30v-60c0-8.284-6.716-15-15-15z" fill="#524798"/><path d="m366 362h-110v30h95v45h30v-60c0-8.284-6.716-15-15-15z" fill="#38336b"/><g><path d="m196 422h-100c-8.284 0-15 6.716-15 15v60h30v-45h70v45h30v-60c0-8.284-6.716-15-15-15z" fill="#524798"/><path d="m416 422h-100c-8.284 0-15 6.716-15 15v60h30v-45h70v45h30v-60c0-8.284-6.716-15-15-15z" fill="#38336b"/></g><path d="m436 512h-40c-8.284 0-15-6.716-15-15s6.716-15 15-15h40c8.284 0 15 6.716 15 15s-6.716 15-15 15z" fill="#2ebeef"/><path d="m336 512h-40c-8.284 0-15-6.716-15-15s6.716-15 15-15h40c8.284 0 15 6.716 15 15s-6.716 15-15 15z" fill="#2ebeef"/><g fill="#ff6378"><path d="m216 512h-40c-8.284 0-15-6.716-15-15s6.716-15 15-15h40c8.284 0 15 6.716 15 15s-6.716 15-15 15z"/><path d="m116 512h-40c-8.284 0-15-6.716-15-15s6.716-15 15-15h40c8.284 0 15 6.716 15 15s-6.716 15-15 15z"/></g></g></svg>